<?xml version="1.0" standalone="no"?>
<!DOCTYPE svg PUBLIC "-//W3C//DTD SVG 1.1//EN" "http://www.w3.org/Graphics/SVG/1.1/DTD/svg11.dtd">
<svg t="1511544901915" class="icon" style="" viewBox="0 0 1024 1024" version="1.1" xmlns="http://www.w3.org/2000/svg" p-id="11929" xmlns:xlink="http://www.w3.org/1999/xlink" width="48" height="48">
    <defs>
        <style type="text/css"></style>
    </defs>
    <path
        d="M505.889 53.862C252.887 57.244 50.48 265.126 53.863 518.193c3.382 252.894 211.264 455.364 464.266 451.964 253.004-3.38 455.409-211.264 452.029-464.334C966.818 252.886 758.893 50.479 505.889 53.862L505.889 53.862zM556.684 206.566c46.56 0 60.305 26.987 60.305 57.905 0 38.617-30.94 74.312-83.67 74.312-44.12 0-65.11-22.21-63.865-58.865C469.477 249.004 495.374 206.566 556.684 206.566zM437.249 798.383c-31.832 0-55.132-19.33-32.88-104.29l36.502-150.61c6.327-24.155 7.375-33.82 0-33.82-9.512 0-50.857 16.695-75.292 33.12l-15.885-26.05c77.455-64.647 166.495-102.59 204.654-102.59 31.81 0 37.09 37.66 21.205 95.565l-41.825 158.38c-7.375 27.99-4.19 37.655 3.185 37.655 9.515 0 40.845-11.565 71.605-35.76l17.98 24.155C551.249 769.388 469.127 798.383 437.249 798.383L437.249 798.383 437.249 798.383z"
        p-id="11930"></path>
</svg>
