<?xml version="1.0" standalone="no"?><!DOCTYPE svg PUBLIC "-//W3C//DTD SVG 1.1//EN" "http://www.w3.org/Graphics/SVG/1.1/DTD/svg11.dtd"><svg t="1511544859166" class="icon" style="" viewBox="0 0 1024 1024" version="1.1" xmlns="http://www.w3.org/2000/svg" p-id="10119" xmlns:xlink="http://www.w3.org/1999/xlink" width="48" height="48"><defs><style type="text/css"></style></defs><path d="M237.222 321.426c0 23.687 19.202 42.891 42.891 42.891s42.891-19.202 42.891-42.891c0 0 0 0 0 0 0-23.687-19.202-42.891-42.891-42.891-23.687 0-42.891 19.202-42.891 42.891 0 0 0 0 0 0z" p-id="10120"></path><path d="M571.27 543.222c0 18.544 15.033 33.575 33.575 33.575s33.575-15.033 33.575-33.575c0-18.544-15.033-33.575-33.575-33.575-18.544 0-33.575 15.033-33.575 33.575z" p-id="10121"></path><path d="M456.005 321.426c0 23.687 19.202 42.891 42.891 42.891s42.891-19.202 42.891-42.891c0 0 0 0 0 0 0-23.687-19.202-42.891-42.891-42.891-23.687 0-42.891 19.202-42.891 42.891 0 0 0 0 0 0z" p-id="10122"></path><path d="M855.585-0.445h-688.337c-91.135 0-165.018 74.124-165.018 165.561v687.481c0 91.437 73.883 165.561 165.018 165.561h688.337c91.136 0 165.018-74.124 165.018-165.561v-687.479c0.001-91.438-73.881-165.562-165.018-165.562zM384.389 681.985c-38.538 0-69.529-7.872-108.148-15.501l-107.929 54.116 30.877-92.875c-77.295-54.022-123.546-123.627-123.546-208.449 0-146.902 139.024-262.571 308.746-262.571 151.811 0 284.802 92.429 311.519 216.827-9.824-1.098-19.724-1.813-29.729-1.813-146.66 0-262.491 109.453-262.491 244.339 0 22.449 3.494 44.069 9.527 64.695-9.527 0.75-19.136 1.232-28.826 1.232zM839.821 790.134l23.223 77.159-84.691-46.388c-30.878 7.741-61.894 15.503-92.64 15.503-146.896 0-262.597-100.406-262.597-224.055 0-123.443 115.699-224.062 262.597-224.062 138.737 0 262.254 100.619 262.254 224.062 0 69.632-46.172 131.289-108.145 177.781z" p-id="10123"></path><path d="M739.511 543.222c0 18.544 15.033 33.575 33.575 33.575s33.575-15.033 33.575-33.575c0-18.544-15.033-33.575-33.575-33.575-18.544 0-33.575 15.033-33.575 33.575z" p-id="10124"></path></svg>