<?xml version="1.0" standalone="no"?><!DOCTYPE svg PUBLIC "-//W3C//DTD SVG 1.1//EN" "http://www.w3.org/Graphics/SVG/1.1/DTD/svg11.dtd"><svg t="1511544802972" class="icon" style="" viewBox="0 0 1024 1024" version="1.1" xmlns="http://www.w3.org/2000/svg" p-id="7135" xmlns:xlink="http://www.w3.org/1999/xlink" width="48" height="48"><defs><style type="text/css"></style></defs><path d="M921.122133 0H103.765333C67.9936 0 35.089067 28.672 35.089067 66.218667v885.828266c0 37.410133 29.832533 66.218667 68.608 66.218667h817.3568c38.775467 0 68.539733-28.808533 68.539733-66.218667V66.218667C989.7984 28.672 956.962133 0 921.122133 0zM255.863467 509.1328c-26.8288 0-50.7904-23.005867-50.7904-48.878933 0-25.941333 23.893333-48.878933 50.722133-48.878934s50.653867 23.005867 50.653867 48.878934a49.220267 49.220267 0 0 1-50.5856 48.878933z m0-230.126933c-26.8288 0-50.722133-23.005867-50.722134-48.878934 0-25.941333 23.893333-48.878933 50.722134-48.878933s50.653867 23.005867 50.653866 48.878933a49.3568 49.3568 0 0 1-50.653866 48.878934z m513.024 230.058666H425.984c-26.965333 0-50.7904-22.9376-50.7904-48.810666 0-25.941333 23.893333-48.878933 50.653867-48.878934h340.104533c26.8288 0 50.722133 23.005867 50.722133 48.878934a48.605867 48.605867 0 0 1-47.7184 48.878933z m0-230.058666H425.984c-26.897067 0-50.722133-23.005867-50.722133-48.878934 0-25.941333 23.893333-48.878933 50.722133-48.878933h340.036267c26.8288 0 50.722133 23.005867 50.722133 48.878933a48.7424 48.7424 0 0 1-47.786667 48.878934z" p-id="7136"></path></svg>