<?xml version="1.0" standalone="no"?><!DOCTYPE svg PUBLIC "-//W3C//DTD SVG 1.1//EN" "http://www.w3.org/Graphics/SVG/1.1/DTD/svg11.dtd"><svg t="1511544669304" class="icon" style="" viewBox="0 0 1024 1024" version="1.1" xmlns="http://www.w3.org/2000/svg" p-id="2954" xmlns:xlink="http://www.w3.org/1999/xlink" width="48" height="48"><defs><style type="text/css"></style></defs><path d="M822.9888 1023.0272 198.9632 1023.0272c-20.9408 0-37.376-19.5072-37.376-44.4416L161.5872 44.4416C161.6384 19.5072 178.0224 0 198.9632 0l624.0256 0c20.9408 0 37.376 19.5072 37.376 44.4416l0 934.144C860.3136 1003.52 843.9296 1023.0272 822.9888 1023.0272zM210.2784 974.3872l601.1904 0 0.2048-925.696L210.4832 48.6912 210.2784 974.3872z" p-id="2955"></path><path d="M755.5584 785.408 266.4448 785.408 266.4448 113.3568l489.1136 0L755.5584 785.408zM315.136 736.768l391.7824 0L706.9184 162.048 315.136 162.048 315.136 736.768z" p-id="2956"></path><path d="M511.0272 958.3616c-42.3936 0-76.9024-33.3824-76.9024-74.3424 0-41.0112 34.5088-74.3936 76.9024-74.3936s76.8512 33.3824 76.8512 74.3936C587.8272 924.9792 553.3696 958.3616 511.0272 958.3616zM511.0272 858.2656c-15.5648 0-28.2112 11.52-28.2112 25.7024 0 14.1824 12.6464 25.7024 28.2112 25.7024 15.5648 0 28.16-11.52 28.16-25.7024C539.1872 869.7856 526.5408 858.2656 511.0272 858.2656z" p-id="2957"></path></svg>